<svg xmlns="http://www.w3.org/2000/svg" viewBox="0 0 128 128">
  <defs>
    <linearGradient id="g1" x1="0" y1="0" x2="1" y2="1">
      <stop offset="0" stop-color="#1f4bd9"/>
      <stop offset="1" stop-color="#5ea0ff"/>
    </linearGradient>
  </defs>
  <rect width="128" height="128" rx="28" fill="#f6f8fc"/>
  <g transform="translate(10,10)">
    <g transform="translate(8,8)">
      <circle cx="36" cy="36" r="26" fill="url(#g1)"/>
      <circle cx="36" cy="36" r="11" fill="#f6f8fc"/>
      <g fill="#1f2a44">
        <rect x="34" y="3" width="4" height="10" rx="2"/>
        <rect x="34" y="59" width="4" height="10" rx="2"/>
        <rect x="3" y="34" width="10" height="4" rx="2"/>
        <rect x="59" y="34" width="10" height="4" rx="2"/>
        <rect x="10" y="10" width="8" height="4" rx="2" transform="rotate(-45 10 10)"/>
        <rect x="10" y="58" width="8" height="4" rx="2" transform="rotate(45 10 58)"/>
        <rect x="58" y="10" width="8" height="4" rx="2" transform="rotate(45 58 10)"/>
        <rect x="58" y="58" width="8" height="4" rx="2" transform="rotate(-45 58 58)"/>
      </g>
    </g>
    <g transform="translate(42,42)">
      <rect x="0" y="6" width="58" height="30" rx="8" fill="#1f2a44"/>
      <rect x="8" y="0" width="20" height="12" rx="4" fill="#2e6ae6"/>
      <rect x="32" y="0" width="18" height="12" rx="4" fill="#2e6ae6"/>
      <rect x="8" y="16" width="10" height="14" rx="3" fill="#f6f8fc"/>
      <rect x="23" y="16" width="10" height="14" rx="3" fill="#f6f8fc"/>
      <rect x="38" y="16" width="10" height="14" rx="3" fill="#f6f8fc"/>
    </g>
  </g>
</svg>
